<svg xmlns="http://www.w3.org/2000/svg" viewBox="0 0 317.14 179.74"><defs><style>.cls-1,.cls-2{fill:#1c1c23;stroke:#486ca1;stroke-miterlimit:10;}.cls-1{stroke-width:5px;}.cls-2{stroke-width:10px;}.cls-3{fill:#fff;}</style></defs><title>arrow</title><g id="Layer_1" data-name="Layer 1"><polygon class="cls-1" points="311.1 23.67 158.57 176.21 6.04 23.67 311.1 23.67"/><polygon class="cls-2" points="291.23 5 158.57 137.66 25.91 5 291.23 5"/></g><g id="Layer_2" data-name="Layer 2"><rect class="cls-3" x="34.66" y="15.26" width="2.86" height="3.03"/><rect class="cls-3" x="83.5" y="15.35" width="2.7" height="2.85"/><rect class="cls-3" x="83.5" y="66.95" width="2.7" height="2.85"/><rect class="cls-3" x="132.26" y="15.35" width="2.7" height="2.85"/><rect class="cls-3" x="181.02" y="15.35" width="2.7" height="2.85"/><rect class="cls-3" x="132.26" y="66.95" width="2.7" height="2.85"/><rect class="cls-3" x="181.02" y="66.95" width="2.7" height="2.85"/><rect class="cls-3" x="132.26" y="118.56" width="2.7" height="2.85"/><rect class="cls-3" x="181.02" y="118.56" width="2.7" height="2.85"/><rect class="cls-3" x="230.8" y="15.35" width="2.7" height="2.85"/><rect class="cls-3" x="279.48" y="15.26" width="2.86" height="3.03"/><rect class="cls-3" x="230.8" y="66.95" width="2.7" height="2.85"/><rect class="cls-3" x="34.57" y="67.93" width="3.05" height="2.7"/><rect class="cls-3" x="83.26" y="118.64" width="3.05" height="2.7"/><rect class="cls-3" x="279.38" y="67.93" width="3.05" height="2.7"/><rect class="cls-3" x="230.69" y="118.64" width="3.05" height="2.7"/><rect class="cls-3" x="132.26" y="170.16" width="2.7" height="2.85"/><rect class="cls-3" x="181.02" y="170.16" width="2.7" height="2.85"/></g></svg>