<?xml version="1.0" encoding="utf-8"?>
<!-- Generator: Adobe Illustrator 23.0.3, SVG Export Plug-In . SVG Version: 6.00 Build 0)  -->
<svg version="1.1" id="Layer_1" xmlns="http://www.w3.org/2000/svg" xmlns:xlink="http://www.w3.org/1999/xlink" x="0px" y="0px"
	 viewBox="0 0 345 269.3" style="enable-background:new 0 0 345 269.3;" xml:space="preserve">
<style type="text/css">
	.st0{fill:#FFFFFF;}
</style>
<title>contact-icon</title>
<path class="st0" d="M172.5,10c41.2,0,79.9,12.1,108.8,34.2c28,21.3,43.4,49.3,43.4,78.8s-15.4,57.5-43.4,78.8
	c-29,22-67.6,34.2-108.8,34.2c-19.5,0.1-38.9-2.8-57.7-8.5l-6.4-2l-3.8,5.8c-2.6,4-13.6,11.3-35.7,18.7c-8.8,2.9-17.6,5.3-24.9,6.9
	c21.9-36.1,18.3-52.7,13.6-59.6l-0.7-1l-0.9-0.8l-0.2-0.1c-11.4-10.1-20.2-21.4-26.2-33.6c-6.1-11.9-9.2-25.3-9.3-38.8
	c0-29.5,15.4-57.5,43.4-78.8C92.6,22.1,131.3,10,172.5,10 M172.5,0C83.2,0,10.9,55.1,10.9,123c0,30.6,14.7,58.6,39,80.1l0.1,0.1
	c1.5,2.2,9,17.3-24.6,64.5c-0.8,1.1,0.4,1.6,3.1,1.6c14.6,0,72.5-15.1,83.7-32.2c19.6,5.9,39.9,8.9,60.3,8.9
	c89.3,0,161.6-55.1,161.6-123S261.8,0,172.5,0z"/>
<path class="st0" d="M107.5,114c5.2,0,9.5,4.3,9.5,9.5s-4.3,9.5-9.5,9.5s-9.5-4.3-9.5-9.5l0,0C98,118.3,102.3,114,107.5,114
	 M107.5,104c-10.8,0-19.5,8.7-19.5,19.5s8.7,19.5,19.5,19.5s19.5-8.7,19.5-19.5S118.3,104,107.5,104L107.5,104z"/>
<path class="st0" d="M177.5,114c5.2,0,9.5,4.3,9.5,9.5s-4.3,9.5-9.5,9.5s-9.5-4.3-9.5-9.5l0,0C168,118.3,172.3,114,177.5,114
	 M177.5,104c-10.8,0-19.5,8.7-19.5,19.5s8.7,19.5,19.5,19.5s19.5-8.7,19.5-19.5S188.3,104,177.5,104L177.5,104z"/>
<path class="st0" d="M247.5,114c5.2,0,9.5,4.3,9.5,9.5s-4.3,9.5-9.5,9.5s-9.5-4.3-9.5-9.5l0,0C238,118.3,242.3,114,247.5,114
	 M247.5,104c-10.8,0-19.5,8.7-19.5,19.5s8.7,19.5,19.5,19.5c10.8,0,19.5-8.7,19.5-19.5S258.3,104,247.5,104L247.5,104z"/>
</svg>
