<svg id="Layer_1" data-name="Layer 1" xmlns="http://www.w3.org/2000/svg" viewBox="0 0 1920 1080"><defs><style>.cls-1{fill:#486CA1;}</style></defs><title>dots</title><rect class="cls-1" x="8.5" y="8.5" width="3" height="3"/><rect class="cls-1" x="108.5" y="8.5" width="3" height="3"/><rect class="cls-1" x="8.5" y="108.5" width="3" height="3"/><rect class="cls-1" x="108.5" y="108.5" width="3" height="3"/><rect class="cls-1" x="8.5" y="208.5" width="3" height="3"/><rect class="cls-1" x="108.5" y="208.5" width="3" height="3"/><rect class="cls-1" x="8.5" y="308.5" width="3" height="3"/><rect class="cls-1" x="108.5" y="308.5" width="3" height="3"/><rect class="cls-1" x="8.5" y="408.5" width="3" height="3"/><rect class="cls-1" x="108.5" y="408.5" width="3" height="3"/><rect class="cls-1" x="8.5" y="508.5" width="3" height="3"/><rect class="cls-1" x="108.5" y="508.5" width="3" height="3"/><rect class="cls-1" x="8.5" y="608.5" width="3" height="3"/><rect class="cls-1" x="108.5" y="608.5" width="3" height="3"/><rect class="cls-1" x="8.5" y="708.5" width="3" height="3"/><rect class="cls-1" x="108.5" y="708.5" width="3" height="3"/><rect class="cls-1" x="8.5" y="808.5" width="3" height="3"/><rect class="cls-1" x="108.5" y="808.5" width="3" height="3"/><rect class="cls-1" x="8.5" y="908.5" width="3" height="3"/><rect class="cls-1" x="108.5" y="908.5" width="3" height="3"/><rect class="cls-1" x="8.5" y="1008.5" width="3" height="3"/><rect class="cls-1" x="108.5" y="1008.5" width="3" height="3"/><rect class="cls-1" x="208.5" y="8.5" width="3" height="3"/><rect class="cls-1" x="308.5" y="8.5" width="3" height="3"/><rect class="cls-1" x="208.5" y="108.5" width="3" height="3"/><rect class="cls-1" x="308.5" y="108.5" width="3" height="3"/><rect class="cls-1" x="208.5" y="208.5" width="3" height="3"/><rect class="cls-1" x="308.5" y="208.5" width="3" height="3"/><rect class="cls-1" x="208.5" y="308.5" width="3" height="3"/><rect class="cls-1" x="308.5" y="308.5" width="3" height="3"/><rect class="cls-1" x="208.5" y="408.5" width="3" height="3"/><rect class="cls-1" x="308.5" y="408.5" width="3" height="3"/><rect class="cls-1" x="208.5" y="508.5" width="3" height="3"/><rect class="cls-1" x="308.5" y="508.5" width="3" height="3"/><rect class="cls-1" x="208.5" y="608.5" width="3" height="3"/><rect class="cls-1" x="308.5" y="608.5" width="3" height="3"/><rect class="cls-1" x="208.5" y="708.5" width="3" height="3"/><rect class="cls-1" x="308.5" y="708.5" width="3" height="3"/><rect class="cls-1" x="208.5" y="808.5" width="3" height="3"/><rect class="cls-1" x="308.5" y="808.5" width="3" height="3"/><rect class="cls-1" x="208.5" y="908.5" width="3" height="3"/><rect class="cls-1" x="308.5" y="908.5" width="3" height="3"/><rect class="cls-1" x="208.5" y="1008.5" width="3" height="3"/><rect class="cls-1" x="308.5" y="1008.5" width="3" height="3"/><rect class="cls-1" x="408.5" y="8.5" width="3" height="3"/><rect class="cls-1" x="508.5" y="8.5" width="3" height="3"/><rect class="cls-1" x="408.5" y="108.5" width="3" height="3"/><rect class="cls-1" x="508.5" y="108.5" width="3" height="3"/><rect class="cls-1" x="408.5" y="208.5" width="3" height="3"/><rect class="cls-1" x="508.5" y="208.5" width="3" height="3"/><rect class="cls-1" x="408.5" y="308.5" width="3" height="3"/><rect class="cls-1" x="508.5" y="308.5" width="3" height="3"/><rect class="cls-1" x="408.5" y="408.5" width="3" height="3"/><rect class="cls-1" x="508.5" y="408.5" width="3" height="3"/><rect class="cls-1" x="408.5" y="508.5" width="3" height="3"/><rect class="cls-1" x="508.5" y="508.5" width="3" height="3"/><rect class="cls-1" x="408.5" y="608.5" width="3" height="3"/><rect class="cls-1" x="508.5" y="608.5" width="3" height="3"/><rect class="cls-1" x="408.5" y="708.5" width="3" height="3"/><rect class="cls-1" x="508.5" y="708.5" width="3" height="3"/><rect class="cls-1" x="408.5" y="808.5" width="3" height="3"/><rect class="cls-1" x="508.5" y="808.5" width="3" height="3"/><rect class="cls-1" x="408.5" y="908.5" width="3" height="3"/><rect class="cls-1" x="508.5" y="908.5" width="3" height="3"/><rect class="cls-1" x="408.5" y="1008.5" width="3" height="3"/><rect class="cls-1" x="508.5" y="1008.5" width="3" height="3"/><rect class="cls-1" x="608.5" y="8.5" width="3" height="3"/><rect class="cls-1" x="708.5" y="8.5" width="3" height="3"/><rect class="cls-1" x="608.5" y="108.5" width="3" height="3"/><rect class="cls-1" x="708.5" y="108.5" width="3" height="3"/><rect class="cls-1" x="608.5" y="208.5" width="3" height="3"/><rect class="cls-1" x="708.5" y="208.5" width="3" height="3"/><rect class="cls-1" x="608.5" y="308.5" width="3" height="3"/><rect class="cls-1" x="708.5" y="308.5" width="3" height="3"/><rect class="cls-1" x="608.5" y="408.5" width="3" height="3"/><rect class="cls-1" x="708.5" y="408.5" width="3" height="3"/><rect class="cls-1" x="608.5" y="508.5" width="3" height="3"/><rect class="cls-1" x="708.5" y="508.5" width="3" height="3"/><rect class="cls-1" x="608.5" y="608.5" width="3" height="3"/><rect class="cls-1" x="708.5" y="608.5" width="3" height="3"/><rect class="cls-1" x="608.5" y="708.5" width="3" height="3"/><rect class="cls-1" x="708.5" y="708.5" width="3" height="3"/><rect class="cls-1" x="608.5" y="808.5" width="3" height="3"/><rect class="cls-1" x="708.5" y="808.5" width="3" height="3"/><rect class="cls-1" x="608.5" y="908.5" width="3" height="3"/><rect class="cls-1" x="708.5" y="908.5" width="3" height="3"/><rect class="cls-1" x="608.5" y="1008.5" width="3" height="3"/><rect class="cls-1" x="708.5" y="1008.5" width="3" height="3"/><rect class="cls-1" x="808.5" y="8.5" width="3" height="3"/><rect class="cls-1" x="908.5" y="8.5" width="3" height="3"/><rect class="cls-1" x="808.5" y="108.5" width="3" height="3"/><rect class="cls-1" x="908.5" y="108.5" width="3" height="3"/><rect class="cls-1" x="808.5" y="208.5" width="3" height="3"/><rect class="cls-1" x="908.5" y="208.5" width="3" height="3"/><rect class="cls-1" x="808.5" y="308.5" width="3" height="3"/><rect class="cls-1" x="908.5" y="308.5" width="3" height="3"/><rect class="cls-1" x="808.5" y="408.5" width="3" height="3"/><rect class="cls-1" x="908.5" y="408.5" width="3" height="3"/><rect class="cls-1" x="808.5" y="508.5" width="3" height="3"/><rect class="cls-1" x="908.5" y="508.5" width="3" height="3"/><rect class="cls-1" x="808.5" y="608.5" width="3" height="3"/><rect class="cls-1" x="908.5" y="608.5" width="3" height="3"/><rect class="cls-1" x="808.5" y="708.5" width="3" height="3"/><rect class="cls-1" x="908.5" y="708.5" width="3" height="3"/><rect class="cls-1" x="808.5" y="808.5" width="3" height="3"/><rect class="cls-1" x="908.5" y="808.5" width="3" height="3"/><rect class="cls-1" x="808.5" y="908.5" width="3" height="3"/><rect class="cls-1" x="908.5" y="908.5" width="3" height="3"/><rect class="cls-1" x="808.5" y="1008.5" width="3" height="3"/><rect class="cls-1" x="908.5" y="1008.5" width="3" height="3"/><rect class="cls-1" x="1008.5" y="8.5" width="3" height="3"/><rect class="cls-1" x="1108.5" y="8.5" width="3" height="3"/><rect class="cls-1" x="1008.5" y="108.5" width="3" height="3"/><rect class="cls-1" x="1108.5" y="108.5" width="3" height="3"/><rect class="cls-1" x="1008.5" y="208.5" width="3" height="3"/><rect class="cls-1" x="1108.5" y="208.5" width="3" height="3"/><rect class="cls-1" x="1008.5" y="308.5" width="3" height="3"/><rect class="cls-1" x="1108.5" y="308.5" width="3" height="3"/><rect class="cls-1" x="1008.5" y="408.5" width="3" height="3"/><rect class="cls-1" x="1108.5" y="408.5" width="3" height="3"/><rect class="cls-1" x="1008.5" y="508.5" width="3" height="3"/><rect class="cls-1" x="1108.5" y="508.5" width="3" height="3"/><rect class="cls-1" x="1008.5" y="608.5" width="3" height="3"/><rect class="cls-1" x="1108.5" y="608.5" width="3" height="3"/><rect class="cls-1" x="1008.5" y="708.5" width="3" height="3"/><rect class="cls-1" x="1108.5" y="708.5" width="3" height="3"/><rect class="cls-1" x="1008.5" y="808.5" width="3" height="3"/><rect class="cls-1" x="1108.5" y="808.5" width="3" height="3"/><rect class="cls-1" x="1008.5" y="908.5" width="3" height="3"/><rect class="cls-1" x="1108.5" y="908.5" width="3" height="3"/><rect class="cls-1" x="1008.5" y="1008.5" width="3" height="3"/><rect class="cls-1" x="1108.5" y="1008.5" width="3" height="3"/><rect class="cls-1" x="1208.5" y="8.5" width="3" height="3"/><rect class="cls-1" x="1308.5" y="8.5" width="3" height="3"/><rect class="cls-1" x="1208.5" y="108.5" width="3" height="3"/><rect class="cls-1" x="1308.5" y="108.5" width="3" height="3"/><rect class="cls-1" x="1208.5" y="208.5" width="3" height="3"/><rect class="cls-1" x="1308.5" y="208.5" width="3" height="3"/><rect class="cls-1" x="1208.5" y="308.5" width="3" height="3"/><rect class="cls-1" x="1308.5" y="308.5" width="3" height="3"/><rect class="cls-1" x="1208.5" y="408.5" width="3" height="3"/><rect class="cls-1" x="1308.5" y="408.5" width="3" height="3"/><rect class="cls-1" x="1208.5" y="508.5" width="3" height="3"/><rect class="cls-1" x="1308.5" y="508.5" width="3" height="3"/><rect class="cls-1" x="1208.5" y="608.5" width="3" height="3"/><rect class="cls-1" x="1308.5" y="608.5" width="3" height="3"/><rect class="cls-1" x="1208.5" y="708.5" width="3" height="3"/><rect class="cls-1" x="1308.5" y="708.5" width="3" height="3"/><rect class="cls-1" x="1208.5" y="808.5" width="3" height="3"/><rect class="cls-1" x="1308.5" y="808.5" width="3" height="3"/><rect class="cls-1" x="1208.5" y="908.5" width="3" height="3"/><rect class="cls-1" x="1308.5" y="908.5" width="3" height="3"/><rect class="cls-1" x="1208.5" y="1008.5" width="3" height="3"/><rect class="cls-1" x="1308.5" y="1008.5" width="3" height="3"/><rect class="cls-1" x="1408.5" y="8.5" width="3" height="3"/><rect class="cls-1" x="1508.5" y="8.5" width="3" height="3"/><rect class="cls-1" x="1408.5" y="108.5" width="3" height="3"/><rect class="cls-1" x="1508.5" y="108.5" width="3" height="3"/><rect class="cls-1" x="1408.5" y="208.5" width="3" height="3"/><rect class="cls-1" x="1508.5" y="208.5" width="3" height="3"/><rect class="cls-1" x="1408.5" y="308.5" width="3" height="3"/><rect class="cls-1" x="1508.5" y="308.5" width="3" height="3"/><rect class="cls-1" x="1408.5" y="408.5" width="3" height="3"/><rect class="cls-1" x="1508.5" y="408.5" width="3" height="3"/><rect class="cls-1" x="1408.5" y="508.5" width="3" height="3"/><rect class="cls-1" x="1508.5" y="508.5" width="3" height="3"/><rect class="cls-1" x="1408.5" y="608.5" width="3" height="3"/><rect class="cls-1" x="1508.5" y="608.5" width="3" height="3"/><rect class="cls-1" x="1408.5" y="708.5" width="3" height="3"/><rect class="cls-1" x="1508.5" y="708.5" width="3" height="3"/><rect class="cls-1" x="1408.5" y="808.5" width="3" height="3"/><rect class="cls-1" x="1508.5" y="808.5" width="3" height="3"/><rect class="cls-1" x="1408.5" y="908.5" width="3" height="3"/><rect class="cls-1" x="1508.5" y="908.5" width="3" height="3"/><rect class="cls-1" x="1408.5" y="1008.5" width="3" height="3"/><rect class="cls-1" x="1508.5" y="1008.5" width="3" height="3"/><rect class="cls-1" x="1608.5" y="8.5" width="3" height="3"/><rect class="cls-1" x="1708.5" y="8.5" width="3" height="3"/><rect class="cls-1" x="1608.5" y="108.5" width="3" height="3"/><rect class="cls-1" x="1708.5" y="108.5" width="3" height="3"/><rect class="cls-1" x="1608.5" y="208.5" width="3" height="3"/><rect class="cls-1" x="1708.5" y="208.5" width="3" height="3"/><rect class="cls-1" x="1608.5" y="308.5" width="3" height="3"/><rect class="cls-1" x="1708.5" y="308.5" width="3" height="3"/><rect class="cls-1" x="1608.5" y="408.5" width="3" height="3"/><rect class="cls-1" x="1708.5" y="408.5" width="3" height="3"/><rect class="cls-1" x="1608.5" y="508.5" width="3" height="3"/><rect class="cls-1" x="1708.5" y="508.5" width="3" height="3"/><rect class="cls-1" x="1608.5" y="608.5" width="3" height="3"/><rect class="cls-1" x="1708.5" y="608.5" width="3" height="3"/><rect class="cls-1" x="1608.5" y="708.5" width="3" height="3"/><rect class="cls-1" x="1708.5" y="708.5" width="3" height="3"/><rect class="cls-1" x="1608.5" y="808.5" width="3" height="3"/><rect class="cls-1" x="1708.5" y="808.5" width="3" height="3"/><rect class="cls-1" x="1608.5" y="908.5" width="3" height="3"/><rect class="cls-1" x="1708.5" y="908.5" width="3" height="3"/><rect class="cls-1" x="1608.5" y="1008.5" width="3" height="3"/><rect class="cls-1" x="1708.5" y="1008.5" width="3" height="3"/><rect class="cls-1" x="1808.5" y="8.5" width="3" height="3"/><rect class="cls-1" x="1908.5" y="8.5" width="3" height="3"/><rect class="cls-1" x="1808.5" y="108.5" width="3" height="3"/><rect class="cls-1" x="1908.5" y="108.5" width="3" height="3"/><rect class="cls-1" x="1808.5" y="208.5" width="3" height="3"/><rect class="cls-1" x="1908.5" y="208.5" width="3" height="3"/><rect class="cls-1" x="1808.5" y="308.5" width="3" height="3"/><rect class="cls-1" x="1908.5" y="308.5" width="3" height="3"/><rect class="cls-1" x="1808.5" y="408.5" width="3" height="3"/><rect class="cls-1" x="1908.5" y="408.5" width="3" height="3"/><rect class="cls-1" x="1808.5" y="508.5" width="3" height="3"/><rect class="cls-1" x="1908.5" y="508.5" width="3" height="3"/><rect class="cls-1" x="1808.5" y="608.5" width="3" height="3"/><rect class="cls-1" x="1908.5" y="608.5" width="3" height="3"/><rect class="cls-1" x="1808.5" y="708.5" width="3" height="3"/><rect class="cls-1" x="1908.5" y="708.5" width="3" height="3"/><rect class="cls-1" x="1808.5" y="808.5" width="3" height="3"/><rect class="cls-1" x="1908.5" y="808.5" width="3" height="3"/><rect class="cls-1" x="1808.5" y="908.5" width="3" height="3"/><rect class="cls-1" x="1908.5" y="908.5" width="3" height="3"/><rect class="cls-1" x="1808.5" y="1008.5" width="3" height="3"/><rect class="cls-1" x="1908.5" y="1008.5" width="3" height="3"/></svg>