<svg xmlns="http://www.w3.org/2000/svg" viewBox="0 0 224 259.52"><defs><style>.cls-1{stroke:#fff;stroke-miterlimit:10;stroke-width:6px;fill:#fff}</style></defs><title>home-icon-v3</title><g id="Layer_7" data-name="Layer 7"><path class="cls-1" d="M112,15.52l100,82V238.69c0,4.87-2.64,8.83-5.89,8.83H139.33V173.69A26.67,26.67,0,0,0,112.67,147h0A26.67,26.67,0,0,0,86,173.69v73.83H17.89c-3.25,0-5.89-4-5.89-8.83V97.52l100-82m0-11.64-5.71,4.68-100,82L3,93.26V238.69c0,10,6.54,17.83,14.89,17.83H95V173.69a17.67,17.67,0,1,1,35.33,0v82.83h75.78c8.35,0,14.89-7.83,14.89-17.83V93.26l-3.29-2.7-100-82L112,3.88Z"/></g></svg>