<?xml version="1.0" standalone="no"?>
<!DOCTYPE svg PUBLIC "-//W3C//DTD SVG 20010904//EN"
 "http://www.w3.org/TR/2001/REC-SVG-20010904/DTD/svg10.dtd">
<svg version="1.0" xmlns="http://www.w3.org/2000/svg"
 width="260.000000pt" height="260.000000pt" viewBox="0 0 260.000000 260.000000"
 preserveAspectRatio="xMidYMid meet">
<metadata>
Created by potrace 1.11, written by Peter Selinger 2001-2013
</metadata>
<g transform="translate(0.000000,260.000000) scale(0.100000,-0.100000)"
fill="#000000" stroke="none">
<path d="M0 1300 l0 -1300 1300 0 1300 0 0 1300 0 1300 -1300 0 -1300 0 0
-1300z m1040 558 c3 -36 30 -761 30 -802 0 -33 2 -57 5 -55 2 3 40 122 83 265
l79 259 68 0 68 0 79 -259 c43 -143 81 -262 83 -265 3 -2 5 34 5 80 0 118 20
685 26 737 l5 42 87 0 87 0 -28 -522 c-15 -288 -30 -533 -33 -546 -4 -22 -7
-23 -126 -20 l-121 3 -62 200 c-34 110 -66 216 -72 235 l-10 35 -12 -45 c-6
-25 -38 -130 -70 -235 l-58 -190 -116 -3 c-114 -3 -117 -2 -121 20 -5 25 -57
971 -56 1031 l0 37 90 0 c50 0 90 -1 90 -2z"/>
</g>
</svg>
