<svg id="Layer_1" data-name="Layer 1" xmlns="http://www.w3.org/2000/svg" viewBox="0 0 82.7 82.33"><defs><style>.cls-1{fill:#fff;}</style></defs><title>search icon outlines</title><path class="cls-1" d="M34.86,69.71A34.86,34.86,0,1,1,69.71,34.86,34.89,34.89,0,0,1,34.86,69.71ZM34.86,4A30.86,30.86,0,1,0,65.71,34.86,30.89,30.89,0,0,0,34.86,4Z"/><path class="cls-1" d="M81.2,82.33a1.49,1.49,0,0,1-1.07-.44L57.41,59.17a1.51,1.51,0,0,1,0-2.12,1.49,1.49,0,0,1,2.12,0L82.26,79.77a1.51,1.51,0,0,1,0,2.12A1.48,1.48,0,0,1,81.2,82.33Z"/></svg>